<mxfile host="Electron" agent="Mozilla/5.0 (Windows NT 10.0; Win64; x64) AppleWebKit/537.36 (KHTML, like Gecko) draw.io/26.0.16 Chrome/132.0.6834.196 Electron/34.2.0 Safari/537.36" version="26.0.16">
  <diagram name="Page-1" id="929967ad-93f9-6ef4-fab6-5d389245f69c">
    <mxGraphModel dx="4545" dy="1855" grid="1" gridSize="10" guides="1" tooltips="1" connect="1" arrows="1" fold="1" page="1" pageScale="1.5" pageWidth="1169" pageHeight="826" background="none" math="0" shadow="0">
      <root>
        <mxCell id="0" style=";html=1;" />
        <mxCell id="1" style=";html=1;" parent="0" />
        <mxCell id="1672d66443f91eb5-23" value="&lt;br&gt;UML : ModÃ¨le des Objets&lt;br&gt; On rend plus modulaire la description des retards des vols.&lt;br&gt;&lt;div&gt;&lt;br&gt;&lt;/div&gt;" style="text;strokeColor=none;fillColor=none;html=1;fontSize=24;fontStyle=1;verticalAlign=middle;align=center;" parent="1" vertex="1">
          <mxGeometry x="-1836" y="-1120" width="1510" height="40" as="geometry" />
        </mxCell>
        <mxCell id="bqn-Ctm7Ob3q2bSDwlBv-1" value="&lt;p style=&quot;margin: 4px 0px 0px; text-align: center;&quot;&gt;&lt;b style=&quot;&quot;&gt;Countries&lt;/b&gt;&lt;/p&gt;&lt;hr size=&quot;1&quot; style=&quot;border-style:solid;&quot;&gt;&lt;span style=&quot;box-sizing: inherit; color: rgba(0, 0, 0, 0); white-space: pre; cursor: text; transform-origin: 0px 0px; position: absolute; font-variant-ligatures: common-ligatures; text-align: center; left: 22.989px; top: 214.202px; font-size: 19.3515px; font-family: sans-serif; transform: scaleX(0.918956);&quot; dir=&quot;ltr&quot; role=&quot;presentation&quot;&gt;countryCode&lt;/span&gt;&lt;span style=&quot;box-sizing: inherit; color: rgba(0, 0, 0, 0); white-space: pre; cursor: text; transform-origin: 0px 0px; position: absolute; font-variant-ligatures: common-ligatures; text-align: center; left: 22.989px; top: 214.202px; font-size: 19.3515px; font-family: sans-serif; transform: scaleX(0.918956);&quot; dir=&quot;ltr&quot; role=&quot;presentation&quot;&gt;countryCode&lt;/span&gt;&lt;span style=&quot;box-sizing: inherit; color: rgba(0, 0, 0, 0); white-space: pre; cursor: text; transform-origin: 0px 0px; position: absolute; font-variant-ligatures: common-ligatures; text-align: center; left: 22.989px; top: 214.202px; font-size: 19.3515px; font-family: sans-serif; transform: scaleX(0.918956);&quot; dir=&quot;ltr&quot; role=&quot;presentation&quot;&gt;countryCode&lt;/span&gt;&lt;span style=&quot;box-sizing: inherit; color: rgba(0, 0, 0, 0); white-space: pre; cursor: text; transform-origin: 0px 0px; position: absolute; font-variant-ligatures: common-ligatures; text-align: center; left: 22.989px; top: 214.202px; font-size: 19.3515px; font-family: sans-serif; transform: scaleX(0.918956);&quot; dir=&quot;ltr&quot; role=&quot;presentation&quot;&gt;countryCode&lt;/span&gt;&lt;p style=&quot;margin:0px;margin-left:8px;&quot;&gt;&lt;u&gt;CountryCode&lt;/u&gt;&amp;nbsp;:&amp;nbsp;String&lt;br&gt;CountryName : String&lt;br&gt;*LanguageCode :&amp;nbsp;&lt;span style=&quot;background-color: transparent; color: light-dark(rgb(0, 0, 0), rgb(255, 255, 255));&quot;&gt;String&lt;/span&gt;&lt;/p&gt;" style="verticalAlign=top;align=left;overflow=fill;html=1;whiteSpace=wrap;" parent="1" vertex="1">
          <mxGeometry x="-1550" y="-950" width="140" height="110" as="geometry" />
        </mxCell>
        <mxCell id="bqn-Ctm7Ob3q2bSDwlBv-5" value="&lt;p style=&quot;margin: 4px 0px 0px; text-align: center;&quot;&gt;&lt;b style=&quot;&quot;&gt;Cities&lt;/b&gt;&lt;/p&gt;&lt;hr size=&quot;1&quot; style=&quot;border-style:solid;&quot;&gt;&lt;span style=&quot;box-sizing: inherit; color: rgba(0, 0, 0, 0); white-space: pre; cursor: text; transform-origin: 0px 0px; position: absolute; font-variant-ligatures: common-ligatures; text-align: center; left: 22.989px; top: 214.202px; font-size: 19.3515px; font-family: sans-serif; transform: scaleX(0.918956);&quot; dir=&quot;ltr&quot; role=&quot;presentation&quot;&gt;countryCode&lt;/span&gt;&lt;span style=&quot;box-sizing: inherit; color: rgba(0, 0, 0, 0); white-space: pre; cursor: text; transform-origin: 0px 0px; position: absolute; font-variant-ligatures: common-ligatures; text-align: center; left: 22.989px; top: 214.202px; font-size: 19.3515px; font-family: sans-serif; transform: scaleX(0.918956);&quot; dir=&quot;ltr&quot; role=&quot;presentation&quot;&gt;countryCode&lt;/span&gt;&lt;span style=&quot;box-sizing: inherit; color: rgba(0, 0, 0, 0); white-space: pre; cursor: text; transform-origin: 0px 0px; position: absolute; font-variant-ligatures: common-ligatures; text-align: center; left: 22.989px; top: 214.202px; font-size: 19.3515px; font-family: sans-serif; transform: scaleX(0.918956);&quot; dir=&quot;ltr&quot; role=&quot;presentation&quot;&gt;countryCode&lt;/span&gt;&lt;span style=&quot;box-sizing: inherit; color: rgba(0, 0, 0, 0); white-space: pre; cursor: text; transform-origin: 0px 0px; position: absolute; font-variant-ligatures: common-ligatures; text-align: center; left: 22.989px; top: 214.202px; font-size: 19.3515px; font-family: sans-serif; transform: scaleX(0.918956);&quot; dir=&quot;ltr&quot; role=&quot;presentation&quot;&gt;countryCode&lt;/span&gt;&lt;p style=&quot;margin:0px;margin-left:8px;&quot;&gt;&lt;u&gt;CityCode&lt;/u&gt;&amp;nbsp;:&amp;nbsp;String&lt;br&gt;CityName :&amp;nbsp;&lt;span style=&quot;background-color: transparent; color: light-dark(rgb(0, 0, 0), rgb(255, 255, 255));&quot;&gt;String&lt;/span&gt;&lt;/p&gt;&lt;p style=&quot;margin:0px;margin-left:8px;&quot;&gt;*LanguageCode :&amp;nbsp;&lt;span style=&quot;background-color: transparent; color: light-dark(rgb(0, 0, 0), rgb(255, 255, 255));&quot;&gt;String&lt;/span&gt;&lt;/p&gt;&lt;p style=&quot;margin:0px;margin-left:8px;&quot;&gt;*CountryCode :&amp;nbsp;&lt;span style=&quot;background-color: transparent; color: light-dark(rgb(0, 0, 0), rgb(255, 255, 255));&quot;&gt;String&lt;/span&gt;&lt;/p&gt;" style="verticalAlign=top;align=left;overflow=fill;html=1;whiteSpace=wrap;" parent="1" vertex="1">
          <mxGeometry x="-1330" y="-950" width="140" height="110" as="geometry" />
        </mxCell>
        <mxCell id="bqn-Ctm7Ob3q2bSDwlBv-6" value="&lt;p style=&quot;margin: 4px 0px 0px; text-align: center;&quot;&gt;&lt;b&gt;Airports&lt;/b&gt;&lt;/p&gt;&lt;hr size=&quot;1&quot; style=&quot;border-style:solid;&quot;&gt;&lt;span style=&quot;box-sizing: inherit; color: rgba(0, 0, 0, 0); white-space: pre; cursor: text; transform-origin: 0px 0px; position: absolute; font-variant-ligatures: common-ligatures; text-align: center; left: 22.989px; top: 214.202px; font-size: 19.3515px; font-family: sans-serif; transform: scaleX(0.918956);&quot; dir=&quot;ltr&quot; role=&quot;presentation&quot;&gt;countryCode&lt;/span&gt;&lt;span style=&quot;box-sizing: inherit; color: rgba(0, 0, 0, 0); white-space: pre; cursor: text; transform-origin: 0px 0px; position: absolute; font-variant-ligatures: common-ligatures; text-align: center; left: 22.989px; top: 214.202px; font-size: 19.3515px; font-family: sans-serif; transform: scaleX(0.918956);&quot; dir=&quot;ltr&quot; role=&quot;presentation&quot;&gt;countryCode&lt;/span&gt;&lt;span style=&quot;box-sizing: inherit; color: rgba(0, 0, 0, 0); white-space: pre; cursor: text; transform-origin: 0px 0px; position: absolute; font-variant-ligatures: common-ligatures; text-align: center; left: 22.989px; top: 214.202px; font-size: 19.3515px; font-family: sans-serif; transform: scaleX(0.918956);&quot; dir=&quot;ltr&quot; role=&quot;presentation&quot;&gt;countryCode&lt;/span&gt;&lt;span style=&quot;box-sizing: inherit; color: rgba(0, 0, 0, 0); white-space: pre; cursor: text; transform-origin: 0px 0px; position: absolute; font-variant-ligatures: common-ligatures; text-align: center; left: 22.989px; top: 214.202px; font-size: 19.3515px; font-family: sans-serif; transform: scaleX(0.918956);&quot; dir=&quot;ltr&quot; role=&quot;presentation&quot;&gt;countryCode&lt;/span&gt;&lt;p style=&quot;margin:0px;margin-left:8px;&quot;&gt;&lt;span style=&quot;background-color: transparent; color: light-dark(rgb(0, 0, 0), rgb(255, 255, 255)); text-align: center;&quot;&gt;&lt;u style=&quot;&quot;&gt;Airport&lt;/u&gt;&lt;/span&gt;&lt;u&gt;Code&lt;/u&gt;&amp;nbsp;:&amp;nbsp;String&lt;/p&gt;&lt;p style=&quot;margin:0px;margin-left:8px;&quot;&gt;&lt;span style=&quot;color: light-dark(rgb(0, 0, 0), rgb(255, 255, 255)); background-color: transparent; text-align: center;&quot;&gt;AirportName&lt;/span&gt;&amp;nbsp;:&amp;nbsp;String&lt;br&gt;*CityCode :&amp;nbsp;&lt;span style=&quot;background-color: transparent; color: light-dark(rgb(0, 0, 0), rgb(255, 255, 255));&quot;&gt;String&lt;/span&gt;&lt;/p&gt;&lt;p style=&quot;margin:0px;margin-left:8px;&quot;&gt;*LanguageCode :&amp;nbsp;&lt;span style=&quot;background-color: transparent; color: light-dark(rgb(0, 0, 0), rgb(255, 255, 255));&quot;&gt;String&lt;/span&gt;&lt;/p&gt;&lt;p style=&quot;margin:0px;margin-left:8px;&quot;&gt;*CountryCode :&amp;nbsp;&lt;span style=&quot;background-color: transparent; color: light-dark(rgb(0, 0, 0), rgb(255, 255, 255));&quot;&gt;String&lt;/span&gt;&lt;/p&gt;" style="verticalAlign=top;align=left;overflow=fill;html=1;whiteSpace=wrap;" parent="1" vertex="1">
          <mxGeometry x="-1110" y="-950" width="140" height="110" as="geometry" />
        </mxCell>
        <mxCell id="bqn-Ctm7Ob3q2bSDwlBv-7" value="&lt;p style=&quot;margin: 4px 0px 0px; text-align: center;&quot;&gt;&lt;b&gt;Airlines&lt;/b&gt;&lt;/p&gt;&lt;hr size=&quot;1&quot; style=&quot;border-style:solid;&quot;&gt;&lt;span style=&quot;box-sizing: inherit; color: rgba(0, 0, 0, 0); white-space: pre; cursor: text; transform-origin: 0px 0px; position: absolute; font-variant-ligatures: common-ligatures; text-align: center; left: 22.989px; top: 214.202px; font-size: 19.3515px; font-family: sans-serif; transform: scaleX(0.918956);&quot; dir=&quot;ltr&quot; role=&quot;presentation&quot;&gt;countryCode&lt;/span&gt;&lt;span style=&quot;box-sizing: inherit; color: rgba(0, 0, 0, 0); white-space: pre; cursor: text; transform-origin: 0px 0px; position: absolute; font-variant-ligatures: common-ligatures; text-align: center; left: 22.989px; top: 214.202px; font-size: 19.3515px; font-family: sans-serif; transform: scaleX(0.918956);&quot; dir=&quot;ltr&quot; role=&quot;presentation&quot;&gt;countryCode&lt;/span&gt;&lt;span style=&quot;box-sizing: inherit; color: rgba(0, 0, 0, 0); white-space: pre; cursor: text; transform-origin: 0px 0px; position: absolute; font-variant-ligatures: common-ligatures; text-align: center; left: 22.989px; top: 214.202px; font-size: 19.3515px; font-family: sans-serif; transform: scaleX(0.918956);&quot; dir=&quot;ltr&quot; role=&quot;presentation&quot;&gt;countryCode&lt;/span&gt;&lt;span style=&quot;box-sizing: inherit; color: rgba(0, 0, 0, 0); white-space: pre; cursor: text; transform-origin: 0px 0px; position: absolute; font-variant-ligatures: common-ligatures; text-align: center; left: 22.989px; top: 214.202px; font-size: 19.3515px; font-family: sans-serif; transform: scaleX(0.918956);&quot; dir=&quot;ltr&quot; role=&quot;presentation&quot;&gt;countryCode&lt;/span&gt;&lt;p style=&quot;margin:0px;margin-left:8px;&quot;&gt;&lt;span style=&quot;background-color: transparent; color: light-dark(rgb(0, 0, 0), rgb(255, 255, 255)); text-align: center;&quot;&gt;&lt;u style=&quot;&quot;&gt;AirlineID&lt;/u&gt;&lt;/span&gt;&lt;span style=&quot;background-color: transparent; color: light-dark(rgb(0, 0, 0), rgb(255, 255, 255));&quot;&gt;:&amp;nbsp;String&lt;/span&gt;&lt;/p&gt;&lt;p style=&quot;margin:0px;margin-left:8px;&quot;&gt;&lt;span style=&quot;text-align: center;&quot;&gt;Airline&lt;/span&gt;&lt;span style=&quot;color: light-dark(rgb(0, 0, 0), rgb(255, 255, 255)); background-color: transparent; text-align: center;&quot;&gt;Name&lt;/span&gt;&amp;nbsp;:&amp;nbsp;String&lt;br&gt;&lt;/p&gt;&lt;p style=&quot;margin:0px;margin-left:8px;&quot;&gt;*LanguageCode :&amp;nbsp;&lt;span style=&quot;background-color: transparent; color: light-dark(rgb(0, 0, 0), rgb(255, 255, 255));&quot;&gt;String&lt;/span&gt;&lt;/p&gt;" style="verticalAlign=top;align=left;overflow=fill;html=1;whiteSpace=wrap;" parent="1" vertex="1">
          <mxGeometry x="-1110" y="-820" width="140" height="90" as="geometry" />
        </mxCell>
        <mxCell id="bqn-Ctm7Ob3q2bSDwlBv-8" value="&lt;p style=&quot;margin: 4px 0px 0px; text-align: center;&quot;&gt;&lt;b&gt;Status&lt;/b&gt;&lt;/p&gt;&lt;hr size=&quot;1&quot; style=&quot;border-style:solid;&quot;&gt;&lt;span style=&quot;box-sizing: inherit; color: rgba(0, 0, 0, 0); white-space: pre; cursor: text; transform-origin: 0px 0px; position: absolute; font-variant-ligatures: common-ligatures; text-align: center; left: 22.989px; top: 214.202px; font-size: 19.3515px; font-family: sans-serif; transform: scaleX(0.918956);&quot; dir=&quot;ltr&quot; role=&quot;presentation&quot;&gt;countryCode&lt;/span&gt;&lt;span style=&quot;box-sizing: inherit; color: rgba(0, 0, 0, 0); white-space: pre; cursor: text; transform-origin: 0px 0px; position: absolute; font-variant-ligatures: common-ligatures; text-align: center; left: 22.989px; top: 214.202px; font-size: 19.3515px; font-family: sans-serif; transform: scaleX(0.918956);&quot; dir=&quot;ltr&quot; role=&quot;presentation&quot;&gt;countryCode&lt;/span&gt;&lt;span style=&quot;box-sizing: inherit; color: rgba(0, 0, 0, 0); white-space: pre; cursor: text; transform-origin: 0px 0px; position: absolute; font-variant-ligatures: common-ligatures; text-align: center; left: 22.989px; top: 214.202px; font-size: 19.3515px; font-family: sans-serif; transform: scaleX(0.918956);&quot; dir=&quot;ltr&quot; role=&quot;presentation&quot;&gt;countryCode&lt;/span&gt;&lt;span style=&quot;box-sizing: inherit; color: rgba(0, 0, 0, 0); white-space: pre; cursor: text; transform-origin: 0px 0px; position: absolute; font-variant-ligatures: common-ligatures; text-align: center; left: 22.989px; top: 214.202px; font-size: 19.3515px; font-family: sans-serif; transform: scaleX(0.918956);&quot; dir=&quot;ltr&quot; role=&quot;presentation&quot;&gt;countryCode&lt;/span&gt;&lt;p style=&quot;margin: 0px 0px 0px 8px;&quot;&gt;&lt;span style=&quot;background-color: transparent; color: light-dark(rgb(0, 0, 0), rgb(255, 255, 255));&quot;&gt;&lt;u&gt;StatusCode&lt;/u&gt;&amp;nbsp;:&amp;nbsp;String&amp;nbsp;&lt;/span&gt;&lt;/p&gt;&lt;p style=&quot;margin: 0px 0px 0px 8px;&quot;&gt;&lt;span style=&quot;background-color: transparent; color: light-dark(rgb(0, 0, 0), rgb(255, 255, 255)); text-align: center;&quot;&gt;StatusName&lt;/span&gt;&lt;span style=&quot;background-color: transparent; color: light-dark(rgb(0, 0, 0), rgb(255, 255, 255));&quot;&gt;&amp;nbsp;:&amp;nbsp;String&lt;/span&gt;&lt;/p&gt;" style="verticalAlign=top;align=left;overflow=fill;html=1;whiteSpace=wrap;" parent="1" vertex="1">
          <mxGeometry x="-1110" y="-624" width="140" height="70" as="geometry" />
        </mxCell>
        <mxCell id="bqn-Ctm7Ob3q2bSDwlBv-31" style="edgeStyle=orthogonalEdgeStyle;rounded=0;orthogonalLoop=1;jettySize=auto;html=1;exitX=0.75;exitY=0;exitDx=0;exitDy=0;" parent="1" source="bqn-Ctm7Ob3q2bSDwlBv-13" target="bqn-Ctm7Ob3q2bSDwlBv-6" edge="1">
          <mxGeometry relative="1" as="geometry">
            <mxPoint x="-1130" y="-660" as="targetPoint" />
            <Array as="points">
              <mxPoint x="-1242" y="-1060" />
              <mxPoint x="-1040" y="-1060" />
            </Array>
          </mxGeometry>
        </mxCell>
        <mxCell id="bqn-Ctm7Ob3q2bSDwlBv-13" value="&lt;p style=&quot;margin: 4px 0px 0px; text-align: center;&quot;&gt;&lt;b&gt;Language&lt;/b&gt;&lt;/p&gt;&lt;hr size=&quot;1&quot; style=&quot;border-style:solid;&quot;&gt;&lt;span style=&quot;box-sizing: inherit; color: rgba(0, 0, 0, 0); white-space: pre; cursor: text; transform-origin: 0px 0px; position: absolute; font-variant-ligatures: common-ligatures; text-align: center; left: 22.989px; top: 214.202px; font-size: 19.3515px; font-family: sans-serif; transform: scaleX(0.918956);&quot; dir=&quot;ltr&quot; role=&quot;presentation&quot;&gt;countryCode&lt;/span&gt;&lt;span style=&quot;box-sizing: inherit; color: rgba(0, 0, 0, 0); white-space: pre; cursor: text; transform-origin: 0px 0px; position: absolute; font-variant-ligatures: common-ligatures; text-align: center; left: 22.989px; top: 214.202px; font-size: 19.3515px; font-family: sans-serif; transform: scaleX(0.918956);&quot; dir=&quot;ltr&quot; role=&quot;presentation&quot;&gt;countryCode&lt;/span&gt;&lt;span style=&quot;box-sizing: inherit; color: rgba(0, 0, 0, 0); white-space: pre; cursor: text; transform-origin: 0px 0px; position: absolute; font-variant-ligatures: common-ligatures; text-align: center; left: 22.989px; top: 214.202px; font-size: 19.3515px; font-family: sans-serif; transform: scaleX(0.918956);&quot; dir=&quot;ltr&quot; role=&quot;presentation&quot;&gt;countryCode&lt;/span&gt;&lt;span style=&quot;box-sizing: inherit; color: rgba(0, 0, 0, 0); white-space: pre; cursor: text; transform-origin: 0px 0px; position: absolute; font-variant-ligatures: common-ligatures; text-align: center; left: 22.989px; top: 214.202px; font-size: 19.3515px; font-family: sans-serif; transform: scaleX(0.918956);&quot; dir=&quot;ltr&quot; role=&quot;presentation&quot;&gt;countryCode&lt;/span&gt;&lt;p style=&quot;margin: 0px 0px 0px 8px;&quot;&gt;&lt;span style=&quot;background-color: transparent; color: light-dark(rgb(0, 0, 0), rgb(255, 255, 255));&quot;&gt;&lt;u&gt;LanguageCode&lt;/u&gt;&amp;nbsp;:&amp;nbsp;String&amp;nbsp;&lt;/span&gt;&lt;/p&gt;&lt;p style=&quot;margin: 0px 0px 0px 8px;&quot;&gt;&lt;span style=&quot;background-color: transparent; color: light-dark(rgb(0, 0, 0), rgb(255, 255, 255));&quot;&gt;Description:&amp;nbsp;String&lt;/span&gt;&lt;/p&gt;" style="verticalAlign=top;align=left;overflow=fill;html=1;whiteSpace=wrap;" parent="1" vertex="1">
          <mxGeometry x="-1332" y="-1050" width="140" height="70" as="geometry" />
        </mxCell>
        <mxCell id="bqn-Ctm7Ob3q2bSDwlBv-33" style="edgeStyle=orthogonalEdgeStyle;rounded=0;orthogonalLoop=1;jettySize=auto;html=1;exitX=1;exitY=0.5;exitDx=0;exitDy=0;strokeColor=none;curved=0;endArrow=diamondThin;endFill=1;strokeWidth=1;" parent="1" edge="1">
          <mxGeometry relative="1" as="geometry">
            <mxPoint x="-808" y="-710" as="targetPoint" />
            <Array as="points">
              <mxPoint x="-811" y="-710" />
            </Array>
            <mxPoint x="-1380" y="-680" as="sourcePoint" />
          </mxGeometry>
        </mxCell>
        <mxCell id="bqn-Ctm7Ob3q2bSDwlBv-15" value="" style="line;strokeWidth=1;fillColor=none;align=left;verticalAlign=middle;spacingTop=-1;spacingLeft=3;spacingRight=3;rotatable=0;labelPosition=right;points=[];portConstraint=eastwest;strokeColor=inherit;" parent="1" vertex="1">
          <mxGeometry x="-850" y="-750" width="120" as="geometry" />
        </mxCell>
        <mxCell id="bqn-Ctm7Ob3q2bSDwlBv-16" value="" style="line;strokeWidth=1;fillColor=none;align=left;verticalAlign=middle;spacingTop=-1;spacingLeft=3;spacingRight=3;rotatable=0;labelPosition=right;points=[];portConstraint=eastwest;strokeColor=inherit;" parent="1" vertex="1">
          <mxGeometry x="-1070" y="-730" width="190" height="10" as="geometry" />
        </mxCell>
        <mxCell id="bqn-Ctm7Ob3q2bSDwlBv-27" value="&lt;u&gt;&lt;b&gt;Explication:&lt;/b&gt;&lt;/u&gt;&lt;div style=&quot;&quot;&gt;&lt;font face=&quot;Helvetica&quot; style=&quot;font-size: 12px;&quot;&gt;-&amp;nbsp;&lt;span style=&quot;background-color: rgb(255, 255, 255); color: light-dark(rgb(0, 0, 0), rgb(255, 255, 255));&quot;&gt;Relation 1-N entre Countries et Cities :&lt;/span&gt;&lt;/font&gt;&lt;span style=&quot;background-color: rgb(255, 255, 255); font-family: New; font-size: 19px; color: light-dark(rgb(0, 0, 0), rgb(255, 255, 255));&quot;&gt;&amp;nbsp;&lt;/span&gt;&lt;span style=&quot;background-color: transparent; color: light-dark(rgb(0, 0, 0), rgb(255, 255, 255));&quot;&gt;Un pays a plusieurs villes.&lt;/span&gt;&lt;/div&gt;&lt;div style=&quot;&quot;&gt;&lt;span style=&quot;background-color: transparent; color: light-dark(rgb(0, 0, 0), rgb(255, 255, 255));&quot;&gt;-&lt;font face=&quot;Helvetica&quot; style=&quot;font-size: 12px;&quot;&gt;&amp;nbsp;&lt;/font&gt;&lt;/span&gt;&lt;span style=&quot;background-color: rgb(255, 255, 255); color: light-dark(rgb(0, 0, 0), rgb(255, 255, 255));&quot;&gt;&lt;font face=&quot;Helvetica&quot; style=&quot;font-size: 12px;&quot;&gt;Relation 1-N entre Cities et Airports : Une ville peut avoir plusieurs Airoports.&lt;/font&gt;&lt;/span&gt;&lt;/div&gt;&lt;div style=&quot;&quot;&gt;&lt;font face=&quot;Helvetica&quot; style=&quot;&quot;&gt;&lt;span style=&quot;background-color: rgb(255, 255, 255); color: light-dark(rgb(0, 0, 0), rgb(255, 255, 255));&quot;&gt;&lt;font style=&quot;font-size: 12px;&quot;&gt;-&amp;nbsp;&lt;/font&gt;&lt;/span&gt;&lt;span style=&quot;font-size: 12px; background-color: rgb(255, 255, 255); color: light-dark(rgb(0, 0, 0), rgb(255, 255, 255));&quot;&gt;Relation N-N entre&amp;nbsp;&lt;/span&gt;&lt;/font&gt;&lt;span style=&quot;background-color: rgb(255, 255, 255); color: light-dark(rgb(0, 0, 0), rgb(255, 255, 255));&quot;&gt;Airports et&lt;/span&gt;&lt;span style=&quot;background-color: rgb(255, 255, 255); color: light-dark(rgb(0, 0, 0), rgb(255, 255, 255));&quot;&gt;&amp;nbsp;Airlines : (Un aeroport peut accueillir plusieurs&amp;nbsp; &amp;nbsp; &amp;nbsp; &amp;nbsp;&lt;span style=&quot;white-space: pre;&quot;&gt;&#x9;&lt;/span&gt;compagnies aeriennes et vice versa).&lt;/span&gt;&lt;/div&gt;&lt;p style=&quot;margin: 0px 0px 12px; padding: 0px; background-color: rgb(255, 255, 255); font-stretch: normal; line-height: normal; font-size-adjust: none;&quot;&gt;&lt;span style=&quot;color: light-dark(rgb(0, 0, 0), rgb(255, 255, 255));&quot;&gt;- Relation 1-N entre Status et Vol (Un Vol/Flight peut contenir plusieurs statues).&lt;/span&gt;&lt;span style=&quot;color: light-dark(rgb(0, 0, 0), rgb(255, 255, 255));&quot;&gt;&amp;nbsp;&lt;/span&gt;&lt;/p&gt;&lt;p style=&quot;margin: 0px 0px 12px; padding: 0px; background-color: rgb(255, 255, 255); font-stretch: normal; line-height: normal; font-size-adjust: none;&quot;&gt;&lt;span style=&quot;color: light-dark(rgb(0, 0, 0), rgb(255, 255, 255));&quot;&gt;- Relation 1-N entre Aircraft et Vol (un avion peut faire un&amp;nbsp; ou plusieurs &lt;span style=&quot;white-space: pre;&quot;&gt;&#x9;&lt;/span&gt;Vol/Flight dans une date precise).&lt;/span&gt;&lt;/p&gt;&lt;p style=&quot;margin: 0px 0px 12px; padding: 0px; background-color: rgb(255, 255, 255); font-stretch: normal; line-height: normal; font-size-adjust: none;&quot;&gt;&lt;span style=&quot;color: light-dark(rgb(0, 0, 0), rgb(255, 255, 255));&quot;&gt;- Relations (departure et arrival) entre Airport et Flight : un flight a au moins un &lt;span style=&quot;white-space: pre;&quot;&gt;&#x9;&lt;/span&gt;Airoport de depart et un autre d&#39;arrivÃ©e.&lt;/span&gt;&lt;/p&gt;&lt;p style=&quot;margin: 0px 0px 12px; padding: 0px; background-color: rgb(255, 255, 255); font-stretch: normal; line-height: normal; font-size-adjust: none;&quot;&gt;Relations (departure et arrival) entre Status et Flight : un flight a au moins un &lt;span style=&quot;white-space: pre;&quot;&gt;&#x9;&lt;/span&gt;Status de depart et un autre d&#39;arrivÃ©e.&lt;span style=&quot;color: light-dark(rgb(0, 0, 0), rgb(255, 255, 255));&quot;&gt;&lt;/span&gt;&lt;/p&gt;&lt;div&gt;&lt;font face=&quot;Helvetica&quot; size=&quot;3&quot;&gt;&lt;br&gt;&lt;/font&gt;&lt;/div&gt;" style="text;strokeColor=default;align=left;fillColor=#FFFFFF;html=1;verticalAlign=middle;whiteSpace=wrap;rounded=0;glass=0;shadow=0;" parent="1" vertex="1">
          <mxGeometry x="-1602" y="-742" width="442" height="212" as="geometry" />
        </mxCell>
        <mxCell id="bqn-Ctm7Ob3q2bSDwlBv-32" style="edgeStyle=orthogonalEdgeStyle;rounded=0;orthogonalLoop=1;jettySize=auto;html=1;exitX=0.25;exitY=0;exitDx=0;exitDy=0;entryX=0.434;entryY=-0.011;entryDx=0;entryDy=0;entryPerimeter=0;" parent="1" source="bqn-Ctm7Ob3q2bSDwlBv-13" target="bqn-Ctm7Ob3q2bSDwlBv-1" edge="1">
          <mxGeometry relative="1" as="geometry">
            <mxPoint x="-1030" y="-940" as="targetPoint" />
            <mxPoint x="-1267" y="-1030" as="sourcePoint" />
            <Array as="points">
              <mxPoint x="-1312" y="-1060" />
              <mxPoint x="-1489" y="-1060" />
            </Array>
          </mxGeometry>
        </mxCell>
        <mxCell id="bqn-Ctm7Ob3q2bSDwlBv-34" value="" style="endArrow=open;html=1;endSize=12;startArrow=diamondThin;startSize=14;startFill=0;edgeStyle=orthogonalEdgeStyle;rounded=0;exitX=0;exitY=0.687;exitDx=0;exitDy=0;exitPerimeter=0;entryX=1;entryY=0.5;entryDx=0;entryDy=0;" parent="1" source="tkLKB5ipnc0lRH775q06-13" edge="1" target="tkLKB5ipnc0lRH775q06-16">
          <mxGeometry relative="1" as="geometry">
            <mxPoint x="-804" y="-677.7" as="sourcePoint" />
            <mxPoint x="-964" y="-677.5" as="targetPoint" />
            <Array as="points" />
          </mxGeometry>
        </mxCell>
        <mxCell id="bqn-Ctm7Ob3q2bSDwlBv-35" value="1..n" style="edgeLabel;resizable=0;html=1;align=left;verticalAlign=top;" parent="bqn-Ctm7Ob3q2bSDwlBv-34" connectable="0" vertex="1">
          <mxGeometry x="-1" relative="1" as="geometry">
            <mxPoint x="-27" as="offset" />
          </mxGeometry>
        </mxCell>
        <mxCell id="bqn-Ctm7Ob3q2bSDwlBv-36" value="1" style="edgeLabel;resizable=0;html=1;align=right;verticalAlign=top;" parent="bqn-Ctm7Ob3q2bSDwlBv-34" connectable="0" vertex="1">
          <mxGeometry x="1" relative="1" as="geometry">
            <mxPoint x="9" as="offset" />
          </mxGeometry>
        </mxCell>
        <mxCell id="bqn-Ctm7Ob3q2bSDwlBv-38" value="" style="endArrow=open;html=1;endSize=12;startArrow=diamondThin;startSize=14;startFill=0;edgeStyle=orthogonalEdgeStyle;rounded=0;" parent="1" edge="1">
          <mxGeometry relative="1" as="geometry">
            <mxPoint x="-1330" y="-908" as="sourcePoint" />
            <mxPoint x="-1410" y="-908" as="targetPoint" />
            <Array as="points">
              <mxPoint x="-1360" y="-908" />
              <mxPoint x="-1360" y="-908" />
            </Array>
          </mxGeometry>
        </mxCell>
        <mxCell id="bqn-Ctm7Ob3q2bSDwlBv-39" value="1..n" style="edgeLabel;resizable=0;html=1;align=left;verticalAlign=top;" parent="bqn-Ctm7Ob3q2bSDwlBv-38" connectable="0" vertex="1">
          <mxGeometry x="-1" relative="1" as="geometry">
            <mxPoint x="-22" y="-2" as="offset" />
          </mxGeometry>
        </mxCell>
        <mxCell id="bqn-Ctm7Ob3q2bSDwlBv-40" value="1" style="edgeLabel;resizable=0;html=1;align=right;verticalAlign=top;" parent="bqn-Ctm7Ob3q2bSDwlBv-38" connectable="0" vertex="1">
          <mxGeometry x="1" relative="1" as="geometry">
            <mxPoint x="7" as="offset" />
          </mxGeometry>
        </mxCell>
        <mxCell id="bqn-Ctm7Ob3q2bSDwlBv-44" value="" style="endArrow=open;html=1;endSize=12;startArrow=diamondThin;startSize=14;startFill=0;edgeStyle=orthogonalEdgeStyle;rounded=0;" parent="1" edge="1">
          <mxGeometry relative="1" as="geometry">
            <mxPoint x="-1109" y="-910" as="sourcePoint" />
            <mxPoint x="-1189" y="-910" as="targetPoint" />
            <Array as="points">
              <mxPoint x="-1139" y="-910" />
              <mxPoint x="-1189" y="-910" />
            </Array>
          </mxGeometry>
        </mxCell>
        <mxCell id="bqn-Ctm7Ob3q2bSDwlBv-45" value="1..n" style="edgeLabel;resizable=0;html=1;align=left;verticalAlign=top;" parent="bqn-Ctm7Ob3q2bSDwlBv-44" connectable="0" vertex="1">
          <mxGeometry x="-1" relative="1" as="geometry">
            <mxPoint x="-22" y="-1" as="offset" />
          </mxGeometry>
        </mxCell>
        <mxCell id="bqn-Ctm7Ob3q2bSDwlBv-46" value="1" style="edgeLabel;resizable=0;html=1;align=right;verticalAlign=top;" parent="bqn-Ctm7Ob3q2bSDwlBv-44" connectable="0" vertex="1">
          <mxGeometry x="1" relative="1" as="geometry">
            <mxPoint x="7" as="offset" />
          </mxGeometry>
        </mxCell>
        <mxCell id="bqn-Ctm7Ob3q2bSDwlBv-49" value="" style="endArrow=open;html=1;endSize=12;startArrow=diamondThin;startSize=14;startFill=0;edgeStyle=orthogonalEdgeStyle;rounded=0;" parent="1" edge="1">
          <mxGeometry relative="1" as="geometry">
            <mxPoint x="-1112" y="-870" as="sourcePoint" />
            <mxPoint x="-1112" y="-770" as="targetPoint" />
            <Array as="points">
              <mxPoint x="-1150" y="-870" />
              <mxPoint x="-1150" y="-770" />
            </Array>
          </mxGeometry>
        </mxCell>
        <mxCell id="bqn-Ctm7Ob3q2bSDwlBv-50" value="1..n" style="edgeLabel;resizable=0;html=1;align=left;verticalAlign=top;" parent="bqn-Ctm7Ob3q2bSDwlBv-49" connectable="0" vertex="1">
          <mxGeometry x="-1" relative="1" as="geometry">
            <mxPoint x="-24" y="2" as="offset" />
          </mxGeometry>
        </mxCell>
        <mxCell id="bqn-Ctm7Ob3q2bSDwlBv-53" value="1..n" style="edgeLabel;resizable=0;html=1;align=left;verticalAlign=top;" parent="1" connectable="0" vertex="1">
          <mxGeometry x="-1134" y="-797" as="geometry" />
        </mxCell>
        <mxCell id="tkLKB5ipnc0lRH775q06-1" value="" style="edgeStyle=none;orthogonalLoop=1;jettySize=auto;html=1;rounded=0;entryX=-0.009;entryY=0.179;entryDx=0;entryDy=0;entryPerimeter=0;" parent="1" edge="1">
          <mxGeometry width="100" relative="1" as="geometry">
            <mxPoint x="-970" y="-920" as="sourcePoint" />
            <mxPoint x="-804.6469999999999" y="-921.55" as="targetPoint" />
            <Array as="points" />
          </mxGeometry>
        </mxCell>
        <mxCell id="tkLKB5ipnc0lRH775q06-2" value="" style="edgeStyle=none;orthogonalLoop=1;jettySize=auto;html=1;rounded=0;exitX=1;exitY=0.75;exitDx=0;exitDy=0;entryX=0.011;entryY=0.274;entryDx=0;entryDy=0;entryPerimeter=0;" parent="1" source="bqn-Ctm7Ob3q2bSDwlBv-6" edge="1">
          <mxGeometry width="100" relative="1" as="geometry">
            <mxPoint x="-940" y="-870" as="sourcePoint" />
            <mxPoint x="-800.9870000000001" y="-869.3" as="targetPoint" />
            <Array as="points" />
          </mxGeometry>
        </mxCell>
        <mxCell id="tkLKB5ipnc0lRH775q06-3" value="departure" style="text;strokeColor=none;align=center;fillColor=none;html=1;verticalAlign=middle;whiteSpace=wrap;rounded=0;" parent="1" vertex="1">
          <mxGeometry x="-930" y="-943" width="60" height="30" as="geometry" />
        </mxCell>
        <mxCell id="tkLKB5ipnc0lRH775q06-4" value="arrival" style="text;strokeColor=none;align=center;fillColor=none;html=1;verticalAlign=middle;whiteSpace=wrap;rounded=0;" parent="1" vertex="1">
          <mxGeometry x="-930" y="-890" width="60" height="30" as="geometry" />
        </mxCell>
        <mxCell id="tkLKB5ipnc0lRH775q06-6" value="" style="endArrow=open;html=1;endSize=12;startArrow=diamondThin;startSize=14;startFill=0;edgeStyle=orthogonalEdgeStyle;rounded=0;" parent="1" edge="1">
          <mxGeometry relative="1" as="geometry">
            <mxPoint x="-1110" y="-668" as="sourcePoint" />
            <mxPoint x="-1111" y="-751" as="targetPoint" />
            <Array as="points">
              <mxPoint x="-1151" y="-668" />
              <mxPoint x="-1151" y="-751" />
            </Array>
          </mxGeometry>
        </mxCell>
        <mxCell id="tkLKB5ipnc0lRH775q06-7" value="1..n" style="edgeLabel;resizable=0;html=1;align=left;verticalAlign=top;" parent="tkLKB5ipnc0lRH775q06-6" connectable="0" vertex="1">
          <mxGeometry x="-1" relative="1" as="geometry">
            <mxPoint x="-24" y="-25" as="offset" />
          </mxGeometry>
        </mxCell>
        <mxCell id="tkLKB5ipnc0lRH775q06-8" value="1" style="edgeLabel;resizable=0;html=1;align=right;verticalAlign=top;" parent="tkLKB5ipnc0lRH775q06-6" connectable="0" vertex="1">
          <mxGeometry x="1" relative="1" as="geometry">
            <mxPoint x="-11" y="-4" as="offset" />
          </mxGeometry>
        </mxCell>
        <mxCell id="tkLKB5ipnc0lRH775q06-9" value="" style="edgeStyle=none;orthogonalLoop=1;jettySize=auto;html=1;rounded=0;entryX=-0.012;entryY=0.863;entryDx=0;entryDy=0;entryPerimeter=0;" parent="1" edge="1" target="tkLKB5ipnc0lRH775q06-13">
          <mxGeometry width="100" relative="1" as="geometry">
            <mxPoint x="-970" y="-593" as="sourcePoint" />
            <mxPoint x="-871.183" y="-594.75" as="targetPoint" />
            <Array as="points" />
          </mxGeometry>
        </mxCell>
        <mxCell id="tkLKB5ipnc0lRH775q06-10" value="" style="edgeStyle=none;orthogonalLoop=1;jettySize=auto;html=1;rounded=0;exitX=1;exitY=0.857;exitDx=0;exitDy=0;entryX=0.002;entryY=0.873;entryDx=0;entryDy=0;entryPerimeter=0;exitPerimeter=0;" parent="1" edge="1" source="bqn-Ctm7Ob3q2bSDwlBv-8">
          <mxGeometry width="100" relative="1" as="geometry">
            <mxPoint x="-970" y="-560" as="sourcePoint" />
            <mxPoint x="-799.5" y="-564.04" as="targetPoint" />
            <Array as="points" />
          </mxGeometry>
        </mxCell>
        <mxCell id="tkLKB5ipnc0lRH775q06-11" value="departure" style="text;strokeColor=none;align=center;fillColor=none;html=1;verticalAlign=middle;whiteSpace=wrap;rounded=0;" parent="1" vertex="1">
          <mxGeometry x="-927" y="-616" width="60" height="30" as="geometry" />
        </mxCell>
        <mxCell id="tkLKB5ipnc0lRH775q06-12" value="arrival" style="text;strokeColor=none;align=center;fillColor=none;html=1;verticalAlign=middle;whiteSpace=wrap;rounded=0;" parent="1" vertex="1">
          <mxGeometry x="-929" y="-585" width="60" height="30" as="geometry" />
        </mxCell>
        <mxCell id="tkLKB5ipnc0lRH775q06-13" value="&lt;p style=&quot;margin: 4px 0px 0px; text-align: center;&quot;&gt;&lt;b&gt;Flight&lt;/b&gt;&lt;/p&gt;&lt;hr size=&quot;1&quot; style=&quot;border-style:solid;&quot;&gt;&lt;p style=&quot;margin:0px;margin-left:8px;&quot;&gt;&lt;span style=&quot;box-sizing: inherit; white-space: pre; cursor: text; transform-origin: 0px 0px; position: absolute; font-variant-ligatures: common-ligatures; text-align: center; left: 22.989px; top: 214.202px; font-size: 19.3515px; font-family: sans-serif; transform: scaleX(0.918956); color: rgb(0, 0, 0);&quot; dir=&quot;ltr&quot; role=&quot;presentation&quot;&gt;yCod&lt;/span&gt;&lt;/p&gt;&lt;p style=&quot;margin: 0px 0px 0px 8px;&quot;&gt;&lt;u&gt;FlightNumber&lt;/u&gt;&amp;nbsp;: String&lt;br&gt;&lt;span style=&quot;color: light-dark(rgb(0, 0, 0), rgb(255, 255, 255)); background-color: transparent; text-align: center;&quot;&gt;*Airport&lt;/span&gt;CodeD&lt;span style=&quot;text-align: center; background-color: transparent; color: light-dark(rgb(0, 0, 0), rgb(255, 255, 255));&quot;&gt;epart&lt;/span&gt;&lt;span style=&quot;background-color: transparent; color: light-dark(rgb(0, 0, 0), rgb(255, 255, 255));&quot;&gt;&amp;nbsp;:&amp;nbsp;String&lt;/span&gt;&lt;/p&gt;&lt;div&gt;&lt;span style=&quot;background-color: transparent; font-variant-ligatures: common-ligatures; white-space: pre;&quot;&gt;&lt;font style=&quot;color: rgb(0, 0, 0);&quot; face=&quot;sans-serif&quot;&gt;  &lt;u&gt;ScheduledDateD&lt;/u&gt;&lt;/font&gt;&lt;/span&gt;&lt;span style=&quot;text-align: center;&quot;&gt;&lt;u&gt;epart&lt;/u&gt;&amp;nbsp;&lt;/span&gt;&lt;span style=&quot;background-color: transparent; font-variant-ligatures: common-ligatures; white-space: pre;&quot;&gt;&lt;font style=&quot;color: rgb(0, 0, 0);&quot; face=&quot;sans-serif&quot;&gt;: Date&lt;/font&gt;&lt;/span&gt;&lt;/div&gt;&lt;div&gt;&lt;span style=&quot;font-family: sans-serif; background-color: transparent; font-variant-ligatures: common-ligatures; white-space: pre;&quot;&gt;  ScheduledTimeD&lt;/span&gt;&lt;span style=&quot;text-align: center;&quot;&gt;epart&amp;nbsp;&lt;/span&gt;&lt;span style=&quot;font-family: sans-serif; background-color: transparent; font-variant-ligatures: common-ligatures; white-space: pre;&quot;&gt;: Time&lt;/span&gt;&lt;/div&gt;&lt;div&gt;&lt;span style=&quot;background-color: transparent; font-variant-ligatures: common-ligatures; white-space: pre;&quot;&gt;&lt;font style=&quot;color: rgb(0, 0, 0);&quot; face=&quot;sans-serif&quot;&gt;  &lt;/font&gt;&lt;/span&gt;&lt;span style=&quot;font-family: sans-serif; font-variant-ligatures: common-ligatures; white-space: pre; background-color: transparent; color: light-dark(rgb(0, 0, 0), rgb(255, 255, 255));&quot;&gt;ScheduledDateTimeD&lt;/span&gt;&lt;span style=&quot;text-align: center; background-color: transparent; color: light-dark(rgb(0, 0, 0), rgb(255, 255, 255));&quot;&gt;epart&amp;nbsp;&lt;/span&gt;&lt;span style=&quot;background-color: transparent; color: light-dark(rgb(0, 0, 0), rgb(255, 255, 255)); font-family: sans-serif; font-variant-ligatures: common-ligatures; white-space: pre;&quot;&gt;: DateTime&lt;/span&gt;&lt;/div&gt;&lt;div&gt;&lt;span style=&quot;font-family: sans-serif; font-variant-ligatures: common-ligatures; white-space: pre; background-color: transparent; color: light-dark(rgb(0, 0, 0), rgb(255, 255, 255));&quot;&gt;  &lt;/span&gt;&lt;span style=&quot;font-family: Calibri; font-size: 11pt; background-color: transparent; color: light-dark(rgb(0, 0, 0), rgb(255, 255, 255));&quot;&gt;Estimated&lt;/span&gt;&lt;span style=&quot;font-family: Calibri; font-size: 11pt; background-color: transparent; color: light-dark(rgb(0, 0, 0), rgb(255, 255, 255));&quot;&gt;DateD&lt;/span&gt;&lt;span style=&quot;text-align: center;&quot;&gt;epart&amp;nbsp;&lt;/span&gt;&lt;span style=&quot;font-family: Calibri; font-size: 11pt; background-color: transparent; color: light-dark(rgb(0, 0, 0), rgb(255, 255, 255));&quot;&gt;:&amp;nbsp;&lt;/span&gt;&lt;span style=&quot;font-family: sans-serif; font-variant-ligatures: common-ligatures; white-space: pre; background-color: transparent; color: light-dark(rgb(0, 0, 0), rgb(255, 255, 255));&quot;&gt;Date&lt;/span&gt;&lt;/div&gt;&lt;div&gt;&lt;span style=&quot;font-family: sans-serif; font-variant-ligatures: common-ligatures; white-space: pre; background-color: transparent; color: light-dark(rgb(0, 0, 0), rgb(255, 255, 255));&quot;&gt;  &lt;/span&gt;&lt;span style=&quot;font-family: Calibri; font-size: 11pt; background-color: transparent; color: light-dark(rgb(0, 0, 0), rgb(255, 255, 255));&quot;&gt;EstimatedT&lt;/span&gt;&lt;span style=&quot;font-family: Calibri; font-size: 11pt; background-color: transparent; color: light-dark(rgb(0, 0, 0), rgb(255, 255, 255));&quot;&gt;imeD&lt;/span&gt;&lt;span style=&quot;text-align: center; background-color: transparent; color: light-dark(rgb(0, 0, 0), rgb(255, 255, 255));&quot;&gt;epart&amp;nbsp;&lt;/span&gt;&lt;span style=&quot;background-color: transparent; color: light-dark(rgb(0, 0, 0), rgb(255, 255, 255)); font-family: Calibri; font-size: 11pt;&quot;&gt;:&amp;nbsp;&lt;/span&gt;&lt;span style=&quot;background-color: transparent; color: light-dark(rgb(0, 0, 0), rgb(255, 255, 255)); font-family: Calibri; font-size: 11pt;&quot;&gt;Time&lt;/span&gt;&lt;/div&gt;&lt;div&gt;&lt;span style=&quot;font-family: Calibri; font-size: 11pt; background-color: transparent; color: light-dark(rgb(0, 0, 0), rgb(255, 255, 255));&quot;&gt;&amp;nbsp;&amp;nbsp;&lt;/span&gt;&lt;span style=&quot;background-color: transparent; color: light-dark(rgb(0, 0, 0), rgb(255, 255, 255)); font-family: Calibri; font-size: 11pt;&quot;&gt;Estimated&lt;/span&gt;&lt;span style=&quot;background-color: transparent; color: light-dark(rgb(0, 0, 0), rgb(255, 255, 255)); font-family: Calibri; font-size: 11pt;&quot;&gt;Date&lt;/span&gt;&lt;span style=&quot;background-color: transparent; color: light-dark(rgb(0, 0, 0), rgb(255, 255, 255)); font-family: Calibri; font-size: 11pt;&quot;&gt;T&lt;/span&gt;&lt;span style=&quot;background-color: transparent; color: light-dark(rgb(0, 0, 0), rgb(255, 255, 255)); font-family: Calibri; font-size: 11pt;&quot;&gt;imeD&lt;/span&gt;&lt;span style=&quot;text-align: center; background-color: transparent; color: light-dark(rgb(0, 0, 0), rgb(255, 255, 255));&quot;&gt;epart&amp;nbsp;&lt;/span&gt;&lt;span style=&quot;background-color: transparent; color: light-dark(rgb(0, 0, 0), rgb(255, 255, 255)); font-family: Calibri; font-size: 11pt;&quot;&gt;:&amp;nbsp;&lt;/span&gt;&lt;span style=&quot;background-color: transparent; color: light-dark(rgb(0, 0, 0), rgb(255, 255, 255)); font-family: sans-serif; font-variant-ligatures: common-ligatures; white-space: pre;&quot;&gt;DateTime&lt;/span&gt;&lt;/div&gt;&lt;div&gt;&lt;span style=&quot;font-family: sans-serif; font-variant-ligatures: common-ligatures; white-space: pre; background-color: transparent; color: light-dark(rgb(0, 0, 0), rgb(255, 255, 255));&quot;&gt;  &lt;/span&gt;&lt;span style=&quot;font-family: Calibri; font-size: 11pt; background-color: transparent; color: light-dark(rgb(0, 0, 0), rgb(255, 255, 255));&quot;&gt;Actual&lt;/span&gt;&lt;span style=&quot;font-family: Calibri; font-size: 11pt; background-color: transparent; color: light-dark(rgb(0, 0, 0), rgb(255, 255, 255));&quot;&gt;DateD&lt;/span&gt;&lt;span style=&quot;text-align: center;&quot;&gt;epart&amp;nbsp;&lt;/span&gt;&lt;span style=&quot;font-family: Calibri; font-size: 11pt; background-color: transparent; color: light-dark(rgb(0, 0, 0), rgb(255, 255, 255));&quot;&gt;:&amp;nbsp;&lt;/span&gt;&lt;span style=&quot;font-family: sans-serif; font-variant-ligatures: common-ligatures; white-space: pre; background-color: transparent; color: light-dark(rgb(0, 0, 0), rgb(255, 255, 255));&quot;&gt;Date&lt;/span&gt;&lt;/div&gt;&lt;div&gt;&lt;span style=&quot;font-family: sans-serif; font-variant-ligatures: common-ligatures; white-space: pre; background-color: transparent; color: light-dark(rgb(0, 0, 0), rgb(255, 255, 255));&quot;&gt;  &lt;/span&gt;&lt;span style=&quot;background-color: transparent; color: light-dark(rgb(0, 0, 0), rgb(255, 255, 255)); font-family: Calibri; font-size: 11pt;&quot;&gt;Actual&lt;/span&gt;&lt;span style=&quot;background-color: transparent; color: light-dark(rgb(0, 0, 0), rgb(255, 255, 255)); font-family: Calibri; font-size: 11pt;&quot;&gt;T&lt;/span&gt;&lt;span style=&quot;background-color: transparent; color: light-dark(rgb(0, 0, 0), rgb(255, 255, 255)); font-family: Calibri; font-size: 11pt;&quot;&gt;imeD&lt;/span&gt;&lt;span style=&quot;text-align: center; background-color: transparent; color: light-dark(rgb(0, 0, 0), rgb(255, 255, 255));&quot;&gt;epart&amp;nbsp;&lt;/span&gt;&lt;span style=&quot;background-color: transparent; color: light-dark(rgb(0, 0, 0), rgb(255, 255, 255)); font-family: Calibri; font-size: 11pt;&quot;&gt;:&amp;nbsp;&lt;/span&gt;&lt;span style=&quot;background-color: transparent; color: light-dark(rgb(0, 0, 0), rgb(255, 255, 255)); font-family: Calibri; font-size: 11pt;&quot;&gt;Time&lt;/span&gt;&lt;/div&gt;&lt;div&gt;&lt;span style=&quot;background-color: transparent; color: light-dark(rgb(0, 0, 0), rgb(255, 255, 255)); font-family: Calibri; font-size: 11pt;&quot;&gt;&amp;nbsp;&amp;nbsp;&lt;/span&gt;&lt;span style=&quot;background-color: transparent; color: light-dark(rgb(0, 0, 0), rgb(255, 255, 255)); font-family: Calibri; font-size: 11pt;&quot;&gt;Actual&lt;/span&gt;&lt;span style=&quot;background-color: transparent; color: light-dark(rgb(0, 0, 0), rgb(255, 255, 255)); font-family: Calibri; font-size: 11pt;&quot;&gt;Date&lt;/span&gt;&lt;span style=&quot;font-family: Calibri; font-size: 14.6667px; background-color: transparent; color: light-dark(rgb(0, 0, 0), rgb(255, 255, 255));&quot;&gt;TimeD&lt;/span&gt;&lt;span style=&quot;text-align: center; background-color: transparent; color: light-dark(rgb(0, 0, 0), rgb(255, 255, 255));&quot;&gt;epart&lt;/span&gt;&lt;span style=&quot;background-color: transparent; color: light-dark(rgb(0, 0, 0), rgb(255, 255, 255)); font-family: Calibri; font-size: 11pt;&quot;&gt;&amp;nbsp;:&amp;nbsp;&lt;/span&gt;&lt;span style=&quot;background-color: transparent; color: light-dark(rgb(0, 0, 0), rgb(255, 255, 255)); font-family: sans-serif; font-variant-ligatures: common-ligatures; white-space: pre;&quot;&gt;Date&lt;/span&gt;&lt;span style=&quot;background-color: transparent; color: light-dark(rgb(0, 0, 0), rgb(255, 255, 255)); font-family: Calibri; font-size: 14.6667px;&quot;&gt;Time&lt;/span&gt;&lt;/div&gt;&lt;div&gt;&lt;span style=&quot;font-family: Calibri; font-size: 14.6667px; background-color: transparent; color: light-dark(rgb(0, 0, 0), rgb(255, 255, 255));&quot;&gt;&amp;nbsp; *&lt;/span&gt;&lt;span style=&quot;background-color: transparent; color: light-dark(rgb(0, 0, 0), rgb(255, 255, 255));&quot;&gt;StatusCodeDepart : String&lt;/span&gt;&lt;/div&gt;&lt;div&gt;&lt;span style=&quot;background-color: transparent; color: light-dark(rgb(0, 0, 0), rgb(255, 255, 255));&quot;&gt;&amp;nbsp; DescriptionD&lt;/span&gt;&lt;span style=&quot;text-align: center; background-color: transparent; color: light-dark(rgb(0, 0, 0), rgb(255, 255, 255));&quot;&gt;epart&lt;/span&gt;&lt;span style=&quot;background-color: transparent; color: light-dark(rgb(0, 0, 0), rgb(255, 255, 255));&quot;&gt;&amp;nbsp;: String&amp;nbsp;&lt;/span&gt;&lt;/div&gt;&lt;div&gt;&lt;span style=&quot;background-color: transparent; color: light-dark(rgb(0, 0, 0), rgb(255, 255, 255));&quot;&gt;&amp;nbsp;&amp;nbsp;&lt;/span&gt;&lt;span style=&quot;background-color: transparent; color: light-dark(rgb(0, 0, 0), rgb(255, 255, 255)); text-align: center;&quot;&gt;*Airport&lt;/span&gt;&lt;span style=&quot;background-color: transparent; color: light-dark(rgb(0, 0, 0), rgb(255, 255, 255));&quot;&gt;CodeA&lt;/span&gt;&lt;span style=&quot;text-align: center; background-color: transparent; color: light-dark(rgb(0, 0, 0), rgb(255, 255, 255));&quot;&gt;rrival&lt;/span&gt;&lt;span style=&quot;background-color: transparent; color: light-dark(rgb(0, 0, 0), rgb(255, 255, 255));&quot;&gt;&amp;nbsp;:&amp;nbsp;String&lt;/span&gt;&lt;/div&gt;&lt;div&gt;&lt;span style=&quot;background-color: transparent; font-variant-ligatures: common-ligatures; white-space: pre;&quot;&gt;&lt;font style=&quot;color: rgb(0, 0, 0);&quot; face=&quot;sans-serif&quot;&gt;  ScheduledDate&lt;/font&gt;&lt;/span&gt;&lt;span style=&quot;background-color: transparent; color: light-dark(rgb(0, 0, 0), rgb(255, 255, 255));&quot;&gt;A&lt;/span&gt;&lt;span style=&quot;background-color: transparent; color: light-dark(rgb(0, 0, 0), rgb(255, 255, 255)); text-align: center;&quot;&gt;rrival&lt;/span&gt;&lt;span style=&quot;font-family: sans-serif; background-color: transparent; font-variant-ligatures: common-ligatures; white-space: pre;&quot;&gt; : Date&lt;/span&gt;&lt;/div&gt;&lt;div&gt;&lt;span style=&quot;font-family: sans-serif; background-color: transparent; font-variant-ligatures: common-ligatures; white-space: pre;&quot;&gt;  ScheduledTime&lt;/span&gt;&lt;span style=&quot;background-color: transparent; color: light-dark(rgb(0, 0, 0), rgb(255, 255, 255));&quot;&gt;A&lt;/span&gt;&lt;span style=&quot;background-color: transparent; color: light-dark(rgb(0, 0, 0), rgb(255, 255, 255)); text-align: center;&quot;&gt;rrival&lt;/span&gt;&lt;span style=&quot;background-color: transparent; font-family: sans-serif; font-variant-ligatures: common-ligatures; white-space: pre; color: light-dark(rgb(0, 0, 0), rgb(255, 255, 255));&quot;&gt; : Time&lt;/span&gt;&lt;/div&gt;&lt;div&gt;&lt;span style=&quot;background-color: transparent; font-variant-ligatures: common-ligatures; white-space: pre;&quot;&gt;&lt;font style=&quot;color: rgb(0, 0, 0);&quot; face=&quot;sans-serif&quot;&gt;  &lt;/font&gt;&lt;/span&gt;&lt;span style=&quot;font-family: sans-serif; font-variant-ligatures: common-ligatures; white-space: pre; background-color: transparent; color: light-dark(rgb(0, 0, 0), rgb(255, 255, 255));&quot;&gt;ScheduledDateTime&lt;/span&gt;&lt;span style=&quot;background-color: transparent; color: light-dark(rgb(0, 0, 0), rgb(255, 255, 255));&quot;&gt;A&lt;/span&gt;&lt;span style=&quot;background-color: transparent; color: light-dark(rgb(0, 0, 0), rgb(255, 255, 255)); text-align: center;&quot;&gt;rrival&lt;/span&gt;&lt;span style=&quot;background-color: transparent; color: light-dark(rgb(0, 0, 0), rgb(255, 255, 255)); font-family: sans-serif; font-variant-ligatures: common-ligatures; white-space: pre;&quot;&gt;: DateTime&lt;/span&gt;&lt;/div&gt;&lt;div&gt;&lt;span style=&quot;font-family: sans-serif; font-variant-ligatures: common-ligatures; white-space: pre; background-color: transparent; color: light-dark(rgb(0, 0, 0), rgb(255, 255, 255));&quot;&gt;  &lt;/span&gt;&lt;span style=&quot;font-family: Calibri; font-size: 11pt; background-color: transparent; color: light-dark(rgb(0, 0, 0), rgb(255, 255, 255));&quot;&gt;Estimated&lt;/span&gt;&lt;span style=&quot;font-family: Calibri; font-size: 11pt; background-color: transparent; color: light-dark(rgb(0, 0, 0), rgb(255, 255, 255));&quot;&gt;Date&lt;/span&gt;&lt;span style=&quot;background-color: transparent; color: light-dark(rgb(0, 0, 0), rgb(255, 255, 255));&quot;&gt;A&lt;/span&gt;&lt;span style=&quot;background-color: transparent; color: light-dark(rgb(0, 0, 0), rgb(255, 255, 255)); text-align: center;&quot;&gt;rrival&lt;/span&gt;&lt;span style=&quot;background-color: transparent; color: light-dark(rgb(0, 0, 0), rgb(255, 255, 255)); font-family: Calibri; font-size: 11pt;&quot;&gt;&amp;nbsp;:&amp;nbsp;&lt;/span&gt;&lt;span style=&quot;background-color: transparent; color: light-dark(rgb(0, 0, 0), rgb(255, 255, 255)); font-family: sans-serif; font-variant-ligatures: common-ligatures; white-space: pre;&quot;&gt;Date&lt;/span&gt;&lt;/div&gt;&lt;div&gt;&lt;span style=&quot;font-family: sans-serif; font-variant-ligatures: common-ligatures; white-space: pre; background-color: transparent; color: light-dark(rgb(0, 0, 0), rgb(255, 255, 255));&quot;&gt;  &lt;/span&gt;&lt;span style=&quot;font-family: Calibri; font-size: 11pt; background-color: transparent; color: light-dark(rgb(0, 0, 0), rgb(255, 255, 255));&quot;&gt;EstimatedT&lt;/span&gt;&lt;span style=&quot;font-family: Calibri; font-size: 11pt; background-color: transparent; color: light-dark(rgb(0, 0, 0), rgb(255, 255, 255));&quot;&gt;ime&lt;/span&gt;&lt;span style=&quot;background-color: transparent; color: light-dark(rgb(0, 0, 0), rgb(255, 255, 255));&quot;&gt;A&lt;/span&gt;&lt;span style=&quot;background-color: transparent; color: light-dark(rgb(0, 0, 0), rgb(255, 255, 255)); text-align: center;&quot;&gt;rrival&lt;/span&gt;&lt;span style=&quot;background-color: transparent; color: light-dark(rgb(0, 0, 0), rgb(255, 255, 255)); font-family: Calibri; font-size: 11pt;&quot;&gt;:&amp;nbsp;&lt;/span&gt;&lt;span style=&quot;background-color: transparent; color: light-dark(rgb(0, 0, 0), rgb(255, 255, 255)); font-family: Calibri; font-size: 11pt;&quot;&gt;Time&lt;/span&gt;&lt;/div&gt;&lt;div&gt;&lt;span style=&quot;font-family: Calibri; font-size: 11pt; background-color: transparent; color: light-dark(rgb(0, 0, 0), rgb(255, 255, 255));&quot;&gt;&amp;nbsp;&amp;nbsp;&lt;/span&gt;&lt;span style=&quot;background-color: transparent; color: light-dark(rgb(0, 0, 0), rgb(255, 255, 255)); font-family: Calibri; font-size: 11pt;&quot;&gt;Estimated&lt;/span&gt;&lt;span style=&quot;background-color: transparent; color: light-dark(rgb(0, 0, 0), rgb(255, 255, 255)); font-family: Calibri; font-size: 11pt;&quot;&gt;Date&lt;/span&gt;&lt;span style=&quot;background-color: transparent; color: light-dark(rgb(0, 0, 0), rgb(255, 255, 255)); font-family: Calibri; font-size: 11pt;&quot;&gt;T&lt;/span&gt;&lt;span style=&quot;background-color: transparent; color: light-dark(rgb(0, 0, 0), rgb(255, 255, 255)); font-family: Calibri; font-size: 11pt;&quot;&gt;ime&lt;/span&gt;&lt;span style=&quot;background-color: transparent; color: light-dark(rgb(0, 0, 0), rgb(255, 255, 255));&quot;&gt;A&lt;/span&gt;&lt;span style=&quot;background-color: transparent; color: light-dark(rgb(0, 0, 0), rgb(255, 255, 255)); text-align: center;&quot;&gt;rrival&lt;/span&gt;&lt;span style=&quot;background-color: transparent; color: light-dark(rgb(0, 0, 0), rgb(255, 255, 255)); font-family: Calibri; font-size: 11pt;&quot;&gt;:&amp;nbsp;&lt;/span&gt;&lt;span style=&quot;background-color: transparent; color: light-dark(rgb(0, 0, 0), rgb(255, 255, 255)); font-family: sans-serif; font-variant-ligatures: common-ligatures; white-space: pre;&quot;&gt;DateTime&lt;/span&gt;&lt;/div&gt;&lt;div&gt;&lt;span style=&quot;font-family: sans-serif; font-variant-ligatures: common-ligatures; white-space: pre; background-color: transparent; color: light-dark(rgb(0, 0, 0), rgb(255, 255, 255));&quot;&gt;  &lt;/span&gt;&lt;span style=&quot;font-family: Calibri; font-size: 11pt; background-color: transparent; color: light-dark(rgb(0, 0, 0), rgb(255, 255, 255));&quot;&gt;Actual&lt;/span&gt;&lt;span style=&quot;font-family: Calibri; font-size: 11pt; background-color: transparent; color: light-dark(rgb(0, 0, 0), rgb(255, 255, 255));&quot;&gt;Date&lt;/span&gt;&lt;span style=&quot;background-color: transparent; color: light-dark(rgb(0, 0, 0), rgb(255, 255, 255));&quot;&gt;A&lt;/span&gt;&lt;span style=&quot;background-color: transparent; color: light-dark(rgb(0, 0, 0), rgb(255, 255, 255)); text-align: center;&quot;&gt;rrival&lt;/span&gt;&lt;span style=&quot;background-color: transparent; color: light-dark(rgb(0, 0, 0), rgb(255, 255, 255)); font-family: Calibri; font-size: 11pt;&quot;&gt;&amp;nbsp;:&amp;nbsp;&lt;/span&gt;&lt;span style=&quot;background-color: transparent; color: light-dark(rgb(0, 0, 0), rgb(255, 255, 255)); font-family: sans-serif; font-variant-ligatures: common-ligatures; white-space: pre;&quot;&gt;Date&lt;/span&gt;&lt;/div&gt;&lt;div&gt;&lt;span style=&quot;font-family: sans-serif; font-variant-ligatures: common-ligatures; white-space: pre; background-color: transparent; color: light-dark(rgb(0, 0, 0), rgb(255, 255, 255));&quot;&gt;  &lt;/span&gt;&lt;span style=&quot;background-color: transparent; color: light-dark(rgb(0, 0, 0), rgb(255, 255, 255)); font-family: Calibri; font-size: 11pt;&quot;&gt;Actual&lt;/span&gt;&lt;span style=&quot;background-color: transparent; color: light-dark(rgb(0, 0, 0), rgb(255, 255, 255)); font-family: Calibri; font-size: 11pt;&quot;&gt;T&lt;/span&gt;&lt;span style=&quot;background-color: transparent; color: light-dark(rgb(0, 0, 0), rgb(255, 255, 255)); font-family: Calibri; font-size: 11pt;&quot;&gt;ime&lt;/span&gt;&lt;span style=&quot;background-color: transparent; color: light-dark(rgb(0, 0, 0), rgb(255, 255, 255));&quot;&gt;A&lt;/span&gt;&lt;span style=&quot;background-color: transparent; color: light-dark(rgb(0, 0, 0), rgb(255, 255, 255)); text-align: center;&quot;&gt;rrival&lt;/span&gt;&lt;span style=&quot;background-color: transparent; color: light-dark(rgb(0, 0, 0), rgb(255, 255, 255)); font-family: Calibri; font-size: 11pt;&quot;&gt;:&amp;nbsp;&lt;/span&gt;&lt;span style=&quot;background-color: transparent; color: light-dark(rgb(0, 0, 0), rgb(255, 255, 255)); font-family: Calibri; font-size: 11pt;&quot;&gt;Time&lt;/span&gt;&lt;/div&gt;&lt;div&gt;&lt;span style=&quot;background-color: transparent; color: light-dark(rgb(0, 0, 0), rgb(255, 255, 255)); font-family: Calibri; font-size: 11pt;&quot;&gt;&amp;nbsp;&amp;nbsp;&lt;/span&gt;&lt;span style=&quot;background-color: transparent; color: light-dark(rgb(0, 0, 0), rgb(255, 255, 255)); font-family: Calibri; font-size: 11pt;&quot;&gt;Actual&lt;/span&gt;&lt;span style=&quot;background-color: transparent; color: light-dark(rgb(0, 0, 0), rgb(255, 255, 255)); font-family: Calibri; font-size: 11pt;&quot;&gt;Date&lt;/span&gt;&lt;span style=&quot;font-family: Calibri; font-size: 14.6667px; background-color: transparent; color: light-dark(rgb(0, 0, 0), rgb(255, 255, 255));&quot;&gt;Time&lt;/span&gt;&lt;span style=&quot;background-color: transparent; color: light-dark(rgb(0, 0, 0), rgb(255, 255, 255));&quot;&gt;A&lt;/span&gt;&lt;span style=&quot;background-color: transparent; color: light-dark(rgb(0, 0, 0), rgb(255, 255, 255)); text-align: center;&quot;&gt;rrival&lt;/span&gt;&lt;span style=&quot;background-color: transparent; color: light-dark(rgb(0, 0, 0), rgb(255, 255, 255)); font-family: Calibri; font-size: 11pt;&quot;&gt;&amp;nbsp;:&amp;nbsp;&lt;/span&gt;&lt;span style=&quot;background-color: transparent; color: light-dark(rgb(0, 0, 0), rgb(255, 255, 255)); font-family: sans-serif; font-variant-ligatures: common-ligatures; white-space: pre;&quot;&gt;Date&lt;/span&gt;&lt;span style=&quot;background-color: transparent; color: light-dark(rgb(0, 0, 0), rgb(255, 255, 255)); font-family: Calibri; font-size: 14.6667px;&quot;&gt;Time&lt;/span&gt;&lt;/div&gt;&lt;div&gt;&lt;span style=&quot;font-family: Calibri; font-size: 14.6667px; background-color: transparent; color: light-dark(rgb(0, 0, 0), rgb(255, 255, 255));&quot;&gt;&amp;nbsp; *&lt;/span&gt;&lt;span style=&quot;background-color: transparent; color: light-dark(rgb(0, 0, 0), rgb(255, 255, 255));&quot;&gt;StatusCode&lt;/span&gt;&lt;span style=&quot;background-color: transparent; color: light-dark(rgb(0, 0, 0), rgb(255, 255, 255));&quot;&gt;A&lt;/span&gt;&lt;span style=&quot;background-color: transparent; color: light-dark(rgb(0, 0, 0), rgb(255, 255, 255)); text-align: center;&quot;&gt;rrival&lt;/span&gt;&lt;span style=&quot;background-color: transparent; color: light-dark(rgb(0, 0, 0), rgb(255, 255, 255));&quot;&gt;&amp;nbsp;: String&lt;/span&gt;&lt;/div&gt;&lt;div&gt;&lt;span style=&quot;background-color: transparent; color: light-dark(rgb(0, 0, 0), rgb(255, 255, 255));&quot;&gt;&amp;nbsp; Description&lt;/span&gt;&lt;span style=&quot;background-color: transparent; color: light-dark(rgb(0, 0, 0), rgb(255, 255, 255));&quot;&gt;A&lt;/span&gt;&lt;span style=&quot;background-color: transparent; color: light-dark(rgb(0, 0, 0), rgb(255, 255, 255)); text-align: center;&quot;&gt;rrival&lt;/span&gt;&lt;span style=&quot;background-color: transparent; color: light-dark(rgb(0, 0, 0), rgb(255, 255, 255));&quot;&gt;&amp;nbsp;: String&amp;nbsp;&lt;/span&gt;&lt;/div&gt;&lt;div&gt;&lt;span style=&quot;background-color: transparent; color: light-dark(rgb(0, 0, 0), rgb(255, 255, 255));&quot;&gt;&amp;nbsp; *&lt;/span&gt;&lt;span style=&quot;background-color: transparent; color: light-dark(rgb(0, 0, 0), rgb(255, 255, 255));&quot;&gt;&lt;u&gt;AircraftCode&lt;/u&gt;&amp;nbsp;&lt;/span&gt;&lt;span style=&quot;background-color: transparent; color: light-dark(rgb(0, 0, 0), rgb(255, 255, 255));&quot;&gt;: String&lt;/span&gt;&lt;/div&gt;&lt;div&gt;&lt;span style=&quot;white-space-collapse: preserve; color: rgb(17, 17, 17); font-family: Roboto, sans-serif; background-color: rgb(247, 247, 247);&quot;&gt;  &lt;/span&gt;&lt;/div&gt;&lt;div&gt;&amp;nbsp;&amp;nbsp;&lt;/div&gt;&lt;div&gt;&amp;nbsp;&amp;nbsp;&lt;span style=&quot;color: rgba(0, 0, 0, 0); font-family: sans-serif; font-size: 9.7485px; font-variant-ligatures: common-ligatures; text-align: center; white-space: pre; background-color: transparent;&quot;&gt; &lt;/span&gt;&lt;span style=&quot;color: rgba(0, 0, 0, 0); font-family: sans-serif; font-size: 9.7485px; font-variant-ligatures: common-ligatures; text-align: center; white-space: pre; background-color: transparent;&quot;&gt;-&lt;/span&gt;&lt;/div&gt;&lt;span style=&quot;box-sizing: inherit; color: rgba(0, 0, 0, 0); white-space: pre; cursor: text; transform-origin: 0px 0px; position: absolute; font-variant-ligatures: common-ligatures; text-align: center; left: 159.88px; top: 322.915px; font-size: 9.7485px; font-family: sans-serif; transform: scaleX(0.93452);&quot; dir=&quot;ltr&quot; role=&quot;presentation&quot;&gt;related&lt;/span&gt;" style="verticalAlign=top;align=left;overflow=fill;html=1;whiteSpace=wrap;" parent="1" vertex="1">
          <mxGeometry x="-800" y="-1000" width="230" height="470" as="geometry" />
        </mxCell>
        <mxCell id="tkLKB5ipnc0lRH775q06-16" value="&lt;p style=&quot;margin: 4px 0px 0px; text-align: center;&quot;&gt;&lt;font style=&quot;color: rgb(0, 0, 0);&quot; face=&quot;sans-serif&quot;&gt;&lt;span style=&quot;font-variant-ligatures: common-ligatures; white-space: pre;&quot;&gt;&lt;b style=&quot;&quot;&gt;Aircraft&lt;/b&gt;&lt;/span&gt;&lt;/font&gt;&lt;/p&gt;&lt;hr size=&quot;1&quot; style=&quot;border-style:solid;&quot;&gt;&lt;span style=&quot;box-sizing: inherit; color: rgb(0, 0, 0); white-space: pre; cursor: text; transform-origin: 0px 0px; position: absolute; font-variant-ligatures: common-ligatures; text-align: center; left: 22.989px; top: 214.202px; font-size: 19.3515px; font-family: sans-serif; transform: scaleX(0.918956);&quot; dir=&quot;ltr&quot; role=&quot;presentation&quot;&gt;countryCode&lt;/span&gt;&lt;span style=&quot;box-sizing: inherit; color: rgb(0, 0, 0); white-space: pre; cursor: text; transform-origin: 0px 0px; position: absolute; font-variant-ligatures: common-ligatures; text-align: center; left: 22.989px; top: 214.202px; font-size: 19.3515px; font-family: sans-serif; transform: scaleX(0.918956);&quot; dir=&quot;ltr&quot; role=&quot;presentation&quot;&gt;countryCode&lt;/span&gt;&lt;span style=&quot;box-sizing: inherit; color: rgb(0, 0, 0); white-space: pre; cursor: text; transform-origin: 0px 0px; position: absolute; font-variant-ligatures: common-ligatures; text-align: center; left: 22.989px; top: 214.202px; font-size: 19.3515px; font-family: sans-serif; transform: scaleX(0.918956);&quot; dir=&quot;ltr&quot; role=&quot;presentation&quot;&gt;countryCode&lt;/span&gt;&lt;span style=&quot;box-sizing: inherit; color: rgb(0, 0, 0); white-space: pre; cursor: text; transform-origin: 0px 0px; position: absolute; font-variant-ligatures: common-ligatures; text-align: center; left: 22.989px; top: 214.202px; font-size: 19.3515px; font-family: sans-serif; transform: scaleX(0.918956);&quot; dir=&quot;ltr&quot; role=&quot;presentation&quot;&gt;countryCode&lt;/span&gt;&lt;p style=&quot;margin: 0px 0px 0px 8px;&quot;&gt;&lt;span style=&quot;background-color: transparent; color: light-dark(rgb(0, 0, 0), rgb(255, 255, 255));&quot;&gt;&lt;u&gt;AircraftCode&lt;/u&gt;&amp;nbsp;:&amp;nbsp;String&amp;nbsp;&lt;/span&gt;&lt;/p&gt;&lt;p style=&quot;margin: 0px 0px 0px 8px;&quot;&gt;&lt;span style=&quot;background-color: transparent; color: light-dark(rgb(0, 0, 0), rgb(255, 255, 255)); text-align: center;&quot;&gt;AircraftName&lt;/span&gt;&lt;span style=&quot;background-color: transparent; color: light-dark(rgb(0, 0, 0), rgb(255, 255, 255));&quot;&gt;&amp;nbsp;:&amp;nbsp;String&lt;/span&gt;&lt;/p&gt;" style="verticalAlign=top;align=left;overflow=fill;html=1;whiteSpace=wrap;" parent="1" vertex="1">
          <mxGeometry x="-1110" y="-712" width="140" height="70" as="geometry" />
        </mxCell>
        <mxCell id="WEuYIxZvvyGxxpHRNtT2-9" value="" style="endArrow=classic;html=1;rounded=0;" edge="1" parent="1">
          <mxGeometry width="50" height="50" relative="1" as="geometry">
            <mxPoint x="-1260" y="-980" as="sourcePoint" />
            <mxPoint x="-1260" y="-950" as="targetPoint" />
          </mxGeometry>
        </mxCell>
        <mxCell id="WEuYIxZvvyGxxpHRNtT2-10" value="1" style="edgeLabel;resizable=0;html=1;align=right;verticalAlign=top;" connectable="0" vertex="1" parent="1">
          <mxGeometry x="-962" y="-942" as="geometry" />
        </mxCell>
        <mxCell id="WEuYIxZvvyGxxpHRNtT2-11" value="1" style="edgeLabel;resizable=0;html=1;align=right;verticalAlign=top;" connectable="0" vertex="1" parent="1">
          <mxGeometry x="-962" y="-888" as="geometry" />
        </mxCell>
        <mxCell id="WEuYIxZvvyGxxpHRNtT2-12" value="1" style="edgeLabel;resizable=0;html=1;align=right;verticalAlign=top;" connectable="0" vertex="1" parent="1">
          <mxGeometry x="-962" y="-584" as="geometry" />
        </mxCell>
        <mxCell id="WEuYIxZvvyGxxpHRNtT2-13" value="1" style="edgeLabel;resizable=0;html=1;align=right;verticalAlign=top;" connectable="0" vertex="1" parent="1">
          <mxGeometry x="-961" y="-614" as="geometry" />
        </mxCell>
        <mxCell id="WEuYIxZvvyGxxpHRNtT2-14" value="n" style="edgeLabel;resizable=0;html=1;align=right;verticalAlign=top;" connectable="0" vertex="1" parent="1">
          <mxGeometry x="-812" y="-585" as="geometry" />
        </mxCell>
        <mxCell id="WEuYIxZvvyGxxpHRNtT2-15" value="n" style="edgeLabel;resizable=0;html=1;align=right;verticalAlign=top;" connectable="0" vertex="1" parent="1">
          <mxGeometry x="-802" y="-946" as="geometry" />
        </mxCell>
        <mxCell id="WEuYIxZvvyGxxpHRNtT2-16" value="n" style="edgeLabel;resizable=0;html=1;align=right;verticalAlign=top;" connectable="0" vertex="1" parent="1">
          <mxGeometry x="-804" y="-893" as="geometry" />
        </mxCell>
        <mxCell id="WEuYIxZvvyGxxpHRNtT2-17" value="n" style="edgeLabel;resizable=0;html=1;align=right;verticalAlign=top;" connectable="0" vertex="1" parent="1">
          <mxGeometry x="-805" y="-619" as="geometry" />
        </mxCell>
      </root>
    </mxGraphModel>
  </diagram>
</mxfile>
